<svg xmlns="http://www.w3.org/2000/svg" xmlns:xlink="http://www.w3.org/1999/xlink" version="1.1" x="0px" y="0px" viewBox="0 0 100 125" style="enable-background:new 0 0 100 100;" xml:space="preserve"><path d="M76.4,34.5c0.8,0.8,0.8,2,0,2.8L44.3,69.5c0,0,0,0,0,0s0,0,0,0c0,0-0.1,0.1-0.1,0.1c-0.4,0.3-0.8,0.5-1.3,0.5  c-0.5,0-0.9-0.2-1.3-0.5c0,0-0.1-0.1-0.1-0.1c0,0,0,0,0,0s0,0,0,0L23.6,51.6c-0.8-0.8-0.8-2,0-2.8s2-0.8,2.8,0l16.5,16.5l30.7-30.8  C74.4,33.7,75.6,33.7,76.4,34.5z M95,50c0,24.8-20.2,45-45,45C25.2,95,5,74.8,5,50C5,25.2,25.2,5,50,5C74.8,5,95,25.2,95,50z M89,50  c0-21.5-17.5-39-39-39S11,28.5,11,50s17.5,39,39,39S89,71.5,89,50z"/><text x="0" y="115" fill="#000000" font-size="5px" font-weight="bold" font-family="'Helvetica Neue', Helvetica, Arial-Unicode, Arial, Sans-serif">Created by IconMark</text><text x="0" y="120" fill="#000000" font-size="5px" font-weight="bold" font-family="'Helvetica Neue', Helvetica, Arial-Unicode, Arial, Sans-serif">from the Noun Project</text></svg>