<svg xmlns="http://www.w3.org/2000/svg" xmlns:xlink="http://www.w3.org/1999/xlink" version="1.1" x="0px" y="0px" viewBox="0 0 100 125" style="enable-background:new 0 0 100 100;" xml:space="preserve"><path d="M50,5C25.2,5,5,25.2,5,50c0,24.8,20.2,45,45,45c24.8,0,45-20.2,45-45C95,25.2,74.8,5,50,5z M50,89c-21.5,0-39-17.5-39-39  s17.5-39,39-39s39,17.5,39,39S71.5,89,50,89z M68.4,48.6c0.8,0.8,0.8,2,0,2.8l-24,24C44,75.8,43.5,76,43,76s-1-0.2-1.4-0.6  c-0.8-0.8-0.8-2,0-2.8L64.2,50L41.6,27.4c-0.8-0.8-0.8-2,0-2.8c0.8-0.8,2-0.8,2.8,0L68.4,48.6z"/><text x="0" y="115" fill="#000000" font-size="5px" font-weight="bold" font-family="'Helvetica Neue', Helvetica, Arial-Unicode, Arial, Sans-serif">Created by IconMark</text><text x="0" y="120" fill="#000000" font-size="5px" font-weight="bold" font-family="'Helvetica Neue', Helvetica, Arial-Unicode, Arial, Sans-serif">from the Noun Project</text></svg>