<svg xmlns="http://www.w3.org/2000/svg" xmlns:xlink="http://www.w3.org/1999/xlink" version="1.1" x="0px" y="0px" viewBox="0 0 100 125" style="enable-background:new 0 0 100 100;" xml:space="preserve"><path d="M81.8,18.2C73.3,9.7,62,5,50,5C38,5,26.7,9.7,18.2,18.2C9.7,26.7,5,38,5,50c0,12,4.7,23.3,13.2,31.8C26.7,90.3,38,95,50,95  c12,0,23.3-4.7,31.8-13.2C90.3,73.3,95,62,95,50C95,38,90.3,26.7,81.8,18.2z M77.6,77.6C70.2,84.9,60.4,89,50,89  s-20.2-4.1-27.6-11.4h0C15.1,70.2,11,60.4,11,50s4.1-20.2,11.4-27.6C29.8,15.1,39.6,11,50,11s20.2,4.1,27.6,11.4  C84.9,29.8,89,39.6,89,50S84.9,70.2,77.6,77.6z M68.4,34.4L52.8,50l15.6,15.6c0.8,0.8,0.8,2,0,2.8C68,68.8,67.5,69,67,69  s-1-0.2-1.4-0.6L50,52.8L34.4,68.4C34.1,68.8,33.5,69,33,69s-1-0.2-1.4-0.6c-0.8-0.8-0.8-2,0-2.8L47.2,50L31.6,34.4  c-0.8-0.8-0.8-2,0-2.8c0.8-0.8,2-0.8,2.8,0L50,47.2l15.6-15.6c0.8-0.8,2-0.8,2.8,0C69.2,32.4,69.2,33.7,68.4,34.4z"/></svg>